<svg width="68" height="68" viewBox="0 0 68 68" fill="none" xmlns="http://www.w3.org/2000/svg">
<path d="M68 34C68 52.7777 52.7777 68 34 68C15.2223 68 0 52.7777 0 34C0 15.2223 15.2223 0 34 0C52.7777 0 68 15.2223 68 34Z" fill="#8785FF"/>
<path fill-rule="evenodd" clip-rule="evenodd" d="M39.0369 23.9261H22.6665C21.9739 23.9261 21.4072 24.4928 21.4072 25.1854V42.815L26.4443 37.778H39.0369C39.7294 37.778 40.2961 37.2113 40.2961 36.5187V25.1854C40.2961 24.4928 39.7294 23.9261 39.0369 23.9261ZM37.7776 26.4446V35.2594H25.3991L24.6561 36.0024L23.9258 36.7327V26.4446H37.7776ZM42.8146 28.9632H45.3332C46.0257 28.9632 46.5924 29.5299 46.5924 30.2225V49.1114L41.5554 44.0743H27.7035C27.0109 44.0743 26.4443 43.5077 26.4443 42.8151V40.2965H42.8146V28.9632Z" fill="white"/>
</svg>
